<?xml version="1.0" standalone="no"?>
<!DOCTYPE svg PUBLIC "-//W3C//DTD SVG 20010904//EN"
 "http://www.w3.org/TR/2001/REC-SVG-20010904/DTD/svg10.dtd">
<svg version="1.0" xmlns="http://www.w3.org/2000/svg"
 width="96.000000pt" height="96.000000pt" viewBox="0 0 96.000000 96.000000"
 preserveAspectRatio="xMidYMid meet">

<g transform="translate(0.000000,96.000000) scale(0.100000,-0.100000)"
fill="#000000" stroke="none">
<path d="M360 869 c-54 -15 -108 -40 -113 -53 -4 -10 138 -248 173 -291 7 -8
22 -15 33 -15 19 0 20 4 13 161 -4 88 -11 172 -16 185 -10 26 -30 29 -90 13z"/>
<path d="M600 548 c-33 -45 -60 -85 -60 -89 0 -3 7 -12 15 -19 12 -10 33 -8
107 10 111 27 120 33 107 67 -17 45 -72 113 -91 113 -11 0 -41 -31 -78 -82z"/>
<path d="M196 474 c-3 -9 -6 -47 -6 -85 0 -50 4 -71 14 -75 17 -7 186 44 205
61 23 23 -2 46 -90 81 -93 38 -114 41 -123 18z"/>
<path d="M550 345 c-10 -12 -3 -30 42 -102 68 -109 81 -114 137 -43 64 80 59
92 -52 129 -106 36 -110 36 -127 16z"/>
<path d="M365 243 c-36 -43 -64 -84 -63 -92 3 -17 79 -56 125 -64 44 -9 53 11
53 120 0 88 -8 113 -37 113 -6 0 -42 -35 -78 -77z"/>
</g>
</svg>
